<?xml version="1.0" encoding="UTF-8" ?>
<!DOCTYPE svg PUBLIC "-//W3C//DTD SVG 1.1//EN" "http://www.w3.org/Graphics/SVG/1.1/DTD/svg11.dtd">
<svg width="524pt" height="422pt" viewBox="0 0 524 422" version="1.1" xmlns="http://www.w3.org/2000/svg">
<g id="#fefdfdff">
<path fill="#fefdfd" opacity="1.00" d=" M 388.16 155.20 C 407.01 149.07 427.26 149.24 446.76 151.53 C 457.91 153.14 469.18 155.57 479.21 160.90 C 471.23 168.22 463.17 175.46 455.10 182.68 C 444.74 177.86 433.39 175.45 422.02 174.82 C 416.24 174.64 410.12 175.10 405.03 178.07 C 402.28 179.64 399.93 183.25 401.60 186.38 C 403.48 190.08 407.85 191.45 411.57 192.54 C 426.10 195.99 441.61 196.78 454.97 204.04 C 461.59 207.64 467.74 213.99 467.86 221.95 C 468.25 235.37 459.64 247.53 448.94 254.91 C 432.37 266.39 411.74 269.68 392.02 270.60 C 370.50 271.04 348.55 268.40 328.60 259.97 C 334.85 251.82 341.85 244.27 348.27 236.26 C 365.36 243.54 384.30 247.06 402.83 244.89 C 408.63 243.89 415.93 241.55 417.28 234.97 C 417.96 231.31 413.94 229.68 411.20 228.63 C 397.18 224.02 381.73 224.32 368.38 217.58 C 360.86 213.88 353.99 207.71 351.69 199.40 C 349.42 190.05 353.03 180.25 359.17 173.15 C 366.72 164.38 377.28 158.74 388.16 155.20 Z" />
<path fill="#fefdfd" opacity="1.00" d=" M 82.26 153.14 C 123.86 152.92 165.47 153.08 207.07 153.06 C 201.48 164.68 195.50 176.12 189.67 187.62 C 179.47 187.67 169.26 187.54 159.06 187.68 C 151.57 214.37 144.25 241.12 136.85 267.84 C 119.87 267.94 102.88 267.86 85.90 267.88 C 92.90 241.07 100.65 214.46 107.89 187.71 C 96.27 187.53 84.64 187.63 73.02 187.67 C 75.66 176.05 79.31 164.68 82.26 153.14 Z" />
<path fill="#fefdfd" opacity="1.00" d=" M 222.15 153.10 C 243.43 152.97 264.72 153.07 286.00 153.05 C 299.44 153.19 313.33 153.83 325.86 159.17 C 334.09 162.54 341.26 169.62 342.53 178.71 C 344.09 189.87 340.86 201.40 334.92 210.87 C 326.12 225.15 310.48 233.91 294.44 237.56 C 279.45 241.35 263.90 240.25 248.61 240.55 C 245.95 249.64 243.76 258.87 240.90 267.91 C 224.14 267.83 207.38 267.91 190.61 267.87 C 200.81 229.53 211.73 191.38 222.15 153.10 M 265.09 183.15 C 262.36 191.80 260.21 200.63 257.96 209.42 C 267.56 209.47 278.39 210.66 286.57 204.58 C 291.50 200.77 293.89 194.18 293.07 188.09 C 292.19 184.89 288.50 183.93 285.61 183.53 C 278.80 182.84 271.93 183.42 265.09 183.15 Z" />
<path fill="#fefdfd" opacity="1.00" d=" M 31.02 304.07 C 47.46 330.34 75.16 347.47 104.09 357.02 C 144.54 370.36 188.01 371.45 230.06 366.97 C 279.34 361.42 327.51 347.61 372.98 327.95 C 377.65 326.03 382.11 323.62 386.87 321.93 C 348.89 349.91 305.58 370.59 260.10 383.08 C 220.96 393.62 179.63 398.12 139.38 391.73 C 110.95 387.16 82.67 376.48 61.20 356.79 C 46.05 342.88 35.06 324.30 31.02 304.07 Z" />
</g>
<g id="#cc081fff">
<path fill="#cc081f" opacity="1.00" d=" M 338.40 8.48 C 375.28 7.04 413.19 12.10 446.61 28.46 C 469.61 39.60 489.96 56.87 503.00 79.02 C 514.05 97.68 519.97 119.32 520.01 141.00 C 520.48 162.30 515.86 183.47 508.44 203.36 C 494.90 239.28 472.19 271.16 445.52 298.52 C 414.21 330.39 377.05 356.29 336.95 375.88 C 289.60 398.81 237.76 413.51 185.00 414.98 C 147.87 415.82 109.72 409.99 76.62 392.39 C 49.56 378.26 26.90 354.81 16.11 326.00 C 5.87 299.51 6.01 269.95 12.79 242.62 C 22.11 205.22 42.46 171.42 67.23 142.22 C 109.93 92.61 166.23 55.68 227.07 32.20 C 262.67 18.68 300.30 10.11 338.40 8.48 M 388.16 155.20 C 377.28 158.74 366.72 164.38 359.17 173.15 C 353.03 180.25 349.42 190.05 351.69 199.40 C 353.99 207.71 360.86 213.88 368.38 217.58 C 381.73 224.32 397.18 224.02 411.20 228.63 C 413.94 229.68 417.96 231.31 417.28 234.97 C 415.93 241.55 408.63 243.89 402.83 244.89 C 384.30 247.06 365.36 243.54 348.27 236.26 C 341.85 244.27 334.85 251.82 328.60 259.97 C 348.55 268.40 370.50 271.04 392.02 270.60 C 411.74 269.68 432.37 266.39 448.94 254.91 C 459.64 247.53 468.25 235.37 467.86 221.95 C 467.74 213.99 461.59 207.64 454.97 204.04 C 441.61 196.78 426.10 195.99 411.57 192.54 C 407.85 191.45 403.48 190.08 401.60 186.38 C 399.93 183.25 402.28 179.64 405.03 178.07 C 410.12 175.10 416.24 174.64 422.02 174.82 C 433.39 175.45 444.74 177.86 455.10 182.68 C 463.17 175.46 471.23 168.22 479.21 160.90 C 469.18 155.57 457.91 153.14 446.76 151.53 C 427.26 149.24 407.01 149.07 388.16 155.20 M 82.26 153.14 C 79.31 164.68 75.66 176.05 73.02 187.67 C 84.64 187.63 96.27 187.53 107.89 187.71 C 100.65 214.46 92.90 241.07 85.90 267.88 C 102.88 267.86 119.87 267.94 136.85 267.84 C 144.25 241.12 151.57 214.37 159.06 187.68 C 169.26 187.54 179.47 187.67 189.67 187.62 C 195.50 176.12 201.48 164.68 207.07 153.06 C 165.47 153.08 123.86 152.92 82.26 153.14 M 222.15 153.10 C 211.73 191.38 200.81 229.53 190.61 267.87 C 207.38 267.91 224.14 267.83 240.90 267.91 C 243.76 258.87 245.95 249.64 248.61 240.55 C 263.90 240.25 279.45 241.35 294.44 237.56 C 310.48 233.91 326.12 225.15 334.92 210.87 C 340.86 201.40 344.09 189.87 342.53 178.71 C 341.26 169.62 334.09 162.54 325.86 159.17 C 313.33 153.83 299.44 153.19 286.00 153.05 C 264.72 153.07 243.43 152.97 222.15 153.10 M 31.02 304.07 C 35.06 324.30 46.05 342.88 61.20 356.79 C 82.67 376.48 110.95 387.16 139.38 391.73 C 179.63 398.12 220.96 393.62 260.10 383.08 C 305.58 370.59 348.89 349.91 386.87 321.93 C 382.11 323.62 377.65 326.03 372.98 327.95 C 327.51 347.61 279.34 361.42 230.06 366.97 C 188.01 371.45 144.54 370.36 104.09 357.02 C 75.16 347.47 47.46 330.34 31.02 304.07 Z" />
<path fill="#cc081f" opacity="1.00" d=" M 265.09 183.15 C 271.93 183.42 278.80 182.84 285.61 183.53 C 288.50 183.93 292.19 184.89 293.07 188.09 C 293.89 194.18 291.50 200.77 286.57 204.58 C 278.39 210.66 267.56 209.47 257.96 209.42 C 260.21 200.63 262.36 191.80 265.09 183.15 Z" />
</g>
</svg>
